# xmcd
#
# Track frame offsets:
#	150
#	6894
#	21526
#	38886
#	54174
#	78737
#	95641
#	109437
#	120922
#	134053
#	155392
#	161117
#
# Disc length: 2225 seconds
# Revision: 0
# Processed by: cddbd v1.5.2PL0 Copyright (c) Steve Scherf et al.
# Submitted via: dBpowerAMP V12.0
#
DISCID=a008af0c
DTITLE=Runaway Planet - Tarnation
DYEAR=2008
DGENRE=Bluegrass
TTITLE0=Tarnation
TTITLE1=Holdin' On
TTITLE2=Love's Left Behind
TTITLE3=Used to Live by the River
TTITLE4=Wayfaring Stranger
TTITLE5=Three Letters (and Wine Stains)
TTITLE6=Wrong
TTITLE7=Limehouse Blues
TTITLE8=Laura Jones
TTITLE9=Workin' On a Building
TTITLE10=Woman With the Devil Inside
TTITLE11=Black and White Rag
EXTD=
EXTT0=
EXTT1=
EXTT2=
EXTT3=
EXTT4=
EXTT5=
EXTT6=
EXTT7=
EXTT8=
EXTT9=
EXTT10=
EXTT11=
PLAYORDER=
